<svg width="1920" height="1080" viewBox="0 0 1920 1080" fill="none" xmlns="http://www.w3.org/2000/svg">
  <rect width="1920" height="1080" fill="#F5F5F5"/>
  <g opacity="0.1">
    <line x1="0" y1="0" x2="1920" y2="0" stroke="#121212" stroke-width="1"/>
    <line x1="0" y1="90" x2="1920" y2="90" stroke="#121212" stroke-width="1"/>
    <line x1="0" y1="180" x2="1920" y2="180" stroke="#121212" stroke-width="1"/>
    <line x1="0" y1="270" x2="1920" y2="270" stroke="#121212" stroke-width="1"/>
    <line x1="0" y1="360" x2="1920" y2="360" stroke="#121212" stroke-width="1"/>
    <line x1="0" y1="450" x2="1920" y2="450" stroke="#121212" stroke-width="1"/>
    <line x1="0" y1="540" x2="1920" y2="540" stroke="#121212" stroke-width="1"/>
    <line x1="0" y1="630" x2="1920" y2="630" stroke="#121212" stroke-width="1"/>
    <line x1="0" y1="720" x2="1920" y2="720" stroke="#121212" stroke-width="1"/>
    <line x1="0" y1="810" x2="1920" y2="810" stroke="#121212" stroke-width="1"/>
    <line x1="0" y1="900" x2="1920" y2="900" stroke="#121212" stroke-width="1"/>
    <line x1="0" y1="990" x2="1920" y2="990" stroke="#121212" stroke-width="1"/>
    <line x1="0" y1="1080" x2="1920" y2="1080" stroke="#121212" stroke-width="1"/>
    
    <line x1="0" y1="0" x2="0" y2="1080" stroke="#121212" stroke-width="1"/>
    <line x1="160" y1="0" x2="160" y2="1080" stroke="#121212" stroke-width="1"/>
    <line x1="320" y1="0" x2="320" y2="1080" stroke="#121212" stroke-width="1"/>
    <line x1="480" y1="0" x2="480" y2="1080" stroke="#121212" stroke-width="1"/>
    <line x1="640" y1="0" x2="640" y2="1080" stroke="#121212" stroke-width="1"/>
    <line x1="800" y1="0" x2="800" y2="1080" stroke="#121212" stroke-width="1"/>
    <line x1="960" y1="0" x2="960" y2="1080" stroke="#121212" stroke-width="1"/>
    <line x1="1120" y1="0" x2="1120" y2="1080" stroke="#121212" stroke-width="1"/>
    <line x1="1280" y1="0" x2="1280" y2="1080" stroke="#121212" stroke-width="1"/>
    <line x1="1440" y1="0" x2="1440" y2="1080" stroke="#121212" stroke-width="1"/>
    <line x1="1600" y1="0" x2="1600" y2="1080" stroke="#121212" stroke-width="1"/>
    <line x1="1760" y1="0" x2="1760" y2="1080" stroke="#121212" stroke-width="1"/>
    <line x1="1920" y1="0" x2="1920" y2="1080" stroke="#121212" stroke-width="1"/>
  </g>
</svg>